<?xml version="1.0" encoding="utf-8"?>
<svg xmlns="http://www.w3.org/2000/svg" xmlns:xlink="http://www.w3.org/1999/xlink" width="600" height="400" viewBox="0 0 2400 1600">
<defs>
  <clipPath id="clip5000">
    <rect x="0" y="0" width="2400" height="1600"/>
  </clipPath>
</defs>
<polygon clip-path="url(#clip5000)" points="
0,1600 2400,1600 2400,0 0,0 
  " fill="#ffffff" fill-rule="evenodd" fill-opacity="1"/>
<defs>
  <clipPath id="clip5001">
    <rect x="480" y="0" width="1681" height="1600"/>
  </clipPath>
</defs>
<polygon clip-path="url(#clip5000)" points="
353.151,1459.24 2352.76,1459.24 2352.76,155.124 353.151,155.124 
  " fill="#ffffff" fill-rule="evenodd" fill-opacity="1"/>
<defs>
  <clipPath id="clip5002">
    <rect x="353" y="155" width="2001" height="1305"/>
  </clipPath>
</defs>
<polyline clip-path="url(#clip5002)" style="stroke:#000000; stroke-width:2; stroke-opacity:0.1; fill:none" points="
  666.983,1459.24 666.983,155.124 
  "/>
<polyline clip-path="url(#clip5002)" style="stroke:#000000; stroke-width:2; stroke-opacity:0.1; fill:none" points="
  1095.71,1459.24 1095.71,155.124 
  "/>
<polyline clip-path="url(#clip5002)" style="stroke:#000000; stroke-width:2; stroke-opacity:0.1; fill:none" points="
  1524.45,1459.24 1524.45,155.124 
  "/>
<polyline clip-path="url(#clip5002)" style="stroke:#000000; stroke-width:2; stroke-opacity:0.1; fill:none" points="
  1953.18,1459.24 1953.18,155.124 
  "/>
<polyline clip-path="url(#clip5002)" style="stroke:#000000; stroke-width:2; stroke-opacity:0.1; fill:none" points="
  353.151,1173.59 2352.76,1173.59 
  "/>
<polyline clip-path="url(#clip5002)" style="stroke:#000000; stroke-width:2; stroke-opacity:0.1; fill:none" points="
  353.151,868.056 2352.76,868.056 
  "/>
<polyline clip-path="url(#clip5002)" style="stroke:#000000; stroke-width:2; stroke-opacity:0.1; fill:none" points="
  353.151,562.516 2352.76,562.516 
  "/>
<polyline clip-path="url(#clip5002)" style="stroke:#000000; stroke-width:2; stroke-opacity:0.1; fill:none" points="
  353.151,256.977 2352.76,256.977 
  "/>
<polyline clip-path="url(#clip5000)" style="stroke:#000000; stroke-width:4; stroke-opacity:1; fill:none" points="
  353.151,1459.24 2352.76,1459.24 
  "/>
<polyline clip-path="url(#clip5000)" style="stroke:#000000; stroke-width:4; stroke-opacity:1; fill:none" points="
  353.151,1459.24 353.151,155.124 
  "/>
<polyline clip-path="url(#clip5000)" style="stroke:#000000; stroke-width:4; stroke-opacity:1; fill:none" points="
  666.983,1459.24 666.983,1439.68 
  "/>
<polyline clip-path="url(#clip5000)" style="stroke:#000000; stroke-width:4; stroke-opacity:1; fill:none" points="
  1095.71,1459.24 1095.71,1439.68 
  "/>
<polyline clip-path="url(#clip5000)" style="stroke:#000000; stroke-width:4; stroke-opacity:1; fill:none" points="
  1524.45,1459.24 1524.45,1439.68 
  "/>
<polyline clip-path="url(#clip5000)" style="stroke:#000000; stroke-width:4; stroke-opacity:1; fill:none" points="
  1953.18,1459.24 1953.18,1439.68 
  "/>
<polyline clip-path="url(#clip5000)" style="stroke:#000000; stroke-width:4; stroke-opacity:1; fill:none" points="
  353.151,1173.59 383.145,1173.59 
  "/>
<polyline clip-path="url(#clip5000)" style="stroke:#000000; stroke-width:4; stroke-opacity:1; fill:none" points="
  353.151,868.056 383.145,868.056 
  "/>
<polyline clip-path="url(#clip5000)" style="stroke:#000000; stroke-width:4; stroke-opacity:1; fill:none" points="
  353.151,562.516 383.145,562.516 
  "/>
<polyline clip-path="url(#clip5000)" style="stroke:#000000; stroke-width:4; stroke-opacity:1; fill:none" points="
  353.151,256.977 383.145,256.977 
  "/>
<g clip-path="url(#clip5000)">
<text style="fill:#000000; fill-opacity:1; font-family:Arial,Helvetica Neue,Helvetica,sans-serif; font-size:48px; text-anchor:middle;" transform="rotate(0, 666.983, 1513.24)" x="666.983" y="1513.24">2.5</text>
</g>
<g clip-path="url(#clip5000)">
<text style="fill:#000000; fill-opacity:1; font-family:Arial,Helvetica Neue,Helvetica,sans-serif; font-size:48px; text-anchor:middle;" transform="rotate(0, 1095.71, 1513.24)" x="1095.71" y="1513.24">5.0</text>
</g>
<g clip-path="url(#clip5000)">
<text style="fill:#000000; fill-opacity:1; font-family:Arial,Helvetica Neue,Helvetica,sans-serif; font-size:48px; text-anchor:middle;" transform="rotate(0, 1524.45, 1513.24)" x="1524.45" y="1513.24">7.5</text>
</g>
<g clip-path="url(#clip5000)">
<text style="fill:#000000; fill-opacity:1; font-family:Arial,Helvetica Neue,Helvetica,sans-serif; font-size:48px; text-anchor:middle;" transform="rotate(0, 1953.18, 1513.24)" x="1953.18" y="1513.24">10.0</text>
</g>
<g clip-path="url(#clip5000)">
<text style="fill:#000000; fill-opacity:1; font-family:Arial,Helvetica Neue,Helvetica,sans-serif; font-size:48px; text-anchor:start;" transform="rotate(0, 199.01, 1197.32)" x="199.01" y="1197.32">2×10</text>
</g>
<g clip-path="url(#clip5000)">
<text style="fill:#000000; fill-opacity:1; font-family:Arial,Helvetica Neue,Helvetica,sans-serif; font-size:38px; text-anchor:start;" transform="rotate(0, 307.407, 1169.91)" x="307.407" y="1169.91">4</text>
</g>
<g clip-path="url(#clip5000)">
<text style="fill:#000000; fill-opacity:1; font-family:Arial,Helvetica Neue,Helvetica,sans-serif; font-size:48px; text-anchor:start;" transform="rotate(0, 199.01, 891.783)" x="199.01" y="891.783">4×10</text>
</g>
<g clip-path="url(#clip5000)">
<text style="fill:#000000; fill-opacity:1; font-family:Arial,Helvetica Neue,Helvetica,sans-serif; font-size:38px; text-anchor:start;" transform="rotate(0, 307.407, 864.373)" x="307.407" y="864.373">4</text>
</g>
<g clip-path="url(#clip5000)">
<text style="fill:#000000; fill-opacity:1; font-family:Arial,Helvetica Neue,Helvetica,sans-serif; font-size:48px; text-anchor:start;" transform="rotate(0, 199.01, 586.244)" x="199.01" y="586.244">6×10</text>
</g>
<g clip-path="url(#clip5000)">
<text style="fill:#000000; fill-opacity:1; font-family:Arial,Helvetica Neue,Helvetica,sans-serif; font-size:38px; text-anchor:start;" transform="rotate(0, 307.407, 558.833)" x="307.407" y="558.833">4</text>
</g>
<g clip-path="url(#clip5000)">
<text style="fill:#000000; fill-opacity:1; font-family:Arial,Helvetica Neue,Helvetica,sans-serif; font-size:48px; text-anchor:start;" transform="rotate(0, 199.01, 280.704)" x="199.01" y="280.704">8×10</text>
</g>
<g clip-path="url(#clip5000)">
<text style="fill:#000000; fill-opacity:1; font-family:Arial,Helvetica Neue,Helvetica,sans-serif; font-size:38px; text-anchor:start;" transform="rotate(0, 307.407, 253.294)" x="307.407" y="253.294">4</text>
</g>
<g clip-path="url(#clip5000)">
<text style="fill:#000000; fill-opacity:1; font-family:Arial,Helvetica Neue,Helvetica,sans-serif; font-size:84px; text-anchor:middle;" transform="rotate(0, 1352.95, 73.2)" x="1352.95" y="73.2">Linear model convergence</text>
</g>
<polyline clip-path="url(#clip5002)" style="stroke:#009af9; stroke-width:4; stroke-opacity:1; fill:none" points="
  581.236,192.033 752.729,1017.41 924.222,1273.47 1095.71,1331.17 1267.21,1375.75 1438.7,1411.67 1610.19,1419.42 1781.69,1420.61 1953.18,1421.48 2124.67,1421.87 
  2296.16,1422.33 
  "/>
</svg>
